<?xml version="1.0" standalone="no"?>
<!DOCTYPE svg PUBLIC "-//W3C//DTD SVG 20010904//EN"
 "http://www.w3.org/TR/2001/REC-SVG-20010904/DTD/svg10.dtd">
<svg version="1.0" xmlns="http://www.w3.org/2000/svg"
 width="550.000000pt" height="550.000000pt" viewBox="0 0 550.000000 550.000000"
 preserveAspectRatio="xMidYMid meet">

<g transform="translate(0.000000,550.000000) scale(0.100000,-0.100000)"
fill="#000000" stroke="none">
<path d="M2547 5256 c-21 -8 -48 -22 -59 -33 -11 -10 -518 -573 -1127 -1251
-801 -893 -1118 -1252 -1148 -1304 -54 -90 -105 -219 -145 -361 -58 -209 -62
-233 -62 -402 0 -181 18 -276 78 -415 84 -194 259 -389 436 -488 38 -21 443
-146 1325 -408 699 -207 1289 -379 1313 -382 61 -7 122 20 174 76 108 116
2085 2507 2100 2540 24 51 22 126 -4 197 -34 94 -32 252 6 367 26 81 27 91 16
140 -17 69 -84 140 -150 158 -107 29 -215 -35 -259 -155 -42 -113 -53 -170
-58 -295 -3 -91 0 -145 11 -199 l16 -74 -39 -46 c-21 -25 -449 -541 -951
-1146 -502 -605 -914 -1102 -916 -1104 -5 -6 -2389 702 -2429 722 -99 49 -179
147 -215 265 -31 101 -45 243 -31 338 15 108 26 145 64 200 43 64 92 88 187
92 73 4 105 -5 1160 -308 597 -172 1103 -317 1125 -322 56 -13 132 5 178 43
48 40 2287 2621 2309 2662 56 104 11 245 -94 295 -53 25 -2677 612 -2733 612
-22 -1 -57 -7 -78 -14z m863 -1026 c432 -106 799 -198 815 -204 83 -35 75 -76
-45 -221 -114 -137 -158 -165 -258 -165 -48 0 -251 46 -865 196 -441 108 -806
199 -812 202 -33 17 -55 48 -55 76 0 24 20 54 89 136 48 58 100 116 114 129
35 32 110 52 177 47 30 -3 408 -91 840 -196z"/>
</g>
</svg>
